<svg width="26" height="26" viewBox="0 0 26 26" fill="none" xmlns="http://www.w3.org/2000/svg">
<path d="M11.2938 5.99452C11.2937 4.8506 10.9235 3.7374 10.2384 2.82129C9.55336 1.90517 8.59024 1.23533 7.49301 0.911864C6.39577 0.588394 5.22331 0.628662 4.15085 1.02665C3.07839 1.42464 2.16351 2.15898 1.54292 3.11994C0.922333 4.0809 0.62936 5.21687 0.707785 6.35811C0.786209 7.49934 1.23182 8.58456 1.97802 9.45159C2.72423 10.3186 3.73096 10.9209 4.84778 11.1685C5.96461 11.416 7.13155 11.2955 8.17422 10.825C8.5586 10.6516 8.87735 10.4851 10.1477 10.9141C10.2977 10.9633 10.4805 11.0148 10.6844 11.0781C10.7546 11.1002 10.8291 11.1054 10.9017 11.0934C10.9744 11.0813 11.0432 11.0523 11.1025 11.0087C11.1619 10.9651 11.2101 10.9082 11.2433 10.8424C11.2766 10.7767 11.2938 10.7041 11.2938 10.6305V5.99452Z" fill="#00B87C"/>
<path d="M14.5469 20.0055C14.5469 21.1494 14.9172 22.2626 15.6022 23.1787C16.2873 24.0948 17.2504 24.7647 18.3476 25.0881C19.4449 25.4116 20.6173 25.3713 21.6898 24.9733C22.7622 24.5754 23.6771 23.841 24.2977 22.8801C24.9183 21.9191 25.2113 20.7831 25.1328 19.6419C25.0544 18.5007 24.6088 17.4154 23.8626 16.5484C23.1164 15.6814 22.1097 15.0791 20.9928 14.8315C19.876 14.584 18.7091 14.7045 17.6664 15.175C17.282 15.3484 16.9633 15.5148 15.693 15.0859C15.543 15.0367 15.3602 14.9852 15.1562 14.9219C15.086 14.8998 15.0115 14.8946 14.9389 14.9066C14.8662 14.9187 14.7975 14.9477 14.7381 14.9913C14.6788 15.0349 14.6305 15.0918 14.5973 15.1575C14.5641 15.2233 14.5468 15.2959 14.5469 15.3695V20.0055Z" fill="#DC1AA3"/>
<path d="M20.0055 11.2938C22.9322 11.2938 25.3047 8.92121 25.3047 5.99453C25.3047 3.06785 22.9322 0.695312 20.0055 0.695312C17.0788 0.695312 14.7063 3.06785 14.7063 5.99453C14.7063 8.92121 17.0788 11.2938 20.0055 11.2938Z" fill="#1A61DB"/>
<path d="M5.99453 25.3047C8.92121 25.3047 11.2938 22.9322 11.2938 20.0055C11.2938 17.0788 8.92121 14.7063 5.99453 14.7063C3.06785 14.7063 0.695312 17.0788 0.695312 20.0055C0.695312 22.9322 3.06785 25.3047 5.99453 25.3047Z" fill="#FEA162"/>
</svg>
